<?xml version="1.0" standalone="no"?>
<!DOCTYPE svg PUBLIC "-//W3C//DTD SVG 20010904//EN"
 "http://www.w3.org/TR/2001/REC-SVG-20010904/DTD/svg10.dtd">
<svg version="1.0" xmlns="http://www.w3.org/2000/svg"
 width="688.000000pt" height="688.000000pt" viewBox="0 0 688.000000 688.000000"
 preserveAspectRatio="xMidYMid meet">
<metadata>
Created by potrace 1.14, written by Peter Selinger 2001-2017
</metadata>
<g transform="translate(0.000000,688.000000) scale(0.100000,-0.100000)"
fill="#000000" stroke="none">
<path d="M3288 6115 c-2 -2 -28 -5 -58 -8 -52 -6 -91 -10 -167 -21 -174 -25
-446 -116 -646 -216 -103 -52 -250 -139 -255 -152 -2 -5 -8 -8 -13 -8 -7 0
-124 -84 -139 -100 -3 -3 -23 -18 -44 -34 -22 -16 -84 -73 -139 -125 -280
-269 -505 -613 -641 -981 -41 -111 -102 -318 -110 -374 -4 -21 -8 -42 -11 -45
-7 -12 -37 -214 -39 -266 -1 -16 -4 -34 -8 -40 -7 -12 -3 -508 5 -550 3 -16 8
-50 11 -75 3 -25 8 -58 11 -75 3 -16 10 -59 16 -95 6 -36 15 -76 20 -90 5 -14
11 -37 13 -52 6 -37 52 -191 78 -258 60 -163 181 -423 208 -450 6 -6 29 -46
47 -81 7 -15 20 -32 28 -39 8 -7 15 -17 15 -22 0 -7 73 -111 90 -128 3 -3 24
-30 47 -61 60 -78 158 -183 263 -280 98 -92 401 -313 429 -314 3 0 17 -8 31
-17 37 -25 225 -114 305 -144 175 -66 412 -122 600 -141 81 -8 377 -8 450 0
122 14 152 19 190 28 22 6 56 12 75 15 19 3 46 9 60 14 14 6 34 11 45 13 11 2
27 6 35 10 8 3 40 12 70 21 219 65 511 218 703 368 23 18 47 36 52 40 74 54
325 298 325 317 0 6 4 11 8 11 10 0 94 104 153 190 24 36 47 67 50 70 30 26
236 421 243 466 1 7 7 18 13 25 5 8 13 25 16 39 3 14 15 52 27 85 12 33 23 67
25 75 2 8 4 15 5 15 1 0 3 7 5 15 2 8 13 47 24 86 11 39 22 88 25 109 4 20 8
40 10 44 3 3 7 27 10 51 4 25 9 59 13 75 18 93 28 241 28 440 0 248 -6 315
-46 530 -30 161 -115 450 -141 483 -6 6 -8 12 -5 12 3 0 -9 33 -27 73 -18 39
-43 96 -56 125 -13 28 -27 52 -32 52 -4 0 -8 7 -8 15 0 9 -11 33 -25 55 -14
22 -25 42 -25 46 0 3 -13 24 -28 47 -16 23 -43 65 -62 92 -109 162 -170 236
-325 390 -129 129 -141 140 -249 222 -39 29 -76 58 -83 63 -7 6 -16 10 -22 10
-5 0 -11 4 -13 8 -4 11 -158 106 -176 108 -7 2 -21 9 -30 17 -31 27 -331 156
-401 173 -9 2 -59 14 -111 28 -114 30 -115 30 -320 62 -36 6 -417 14 -422 9z"/>
</g>
</svg>
