<?xml version="1.0" encoding="utf-8"?>
<!-- Generator: Adobe Illustrator 24.0.2, SVG Export Plug-In . SVG Version: 6.00 Build 0)  -->
<svg version="1.1" id="Layer_1" xmlns="http://www.w3.org/2000/svg" xmlns:xlink="http://www.w3.org/1999/xlink" x="0px" y="0px"
	 viewBox="0 0 1125 2436" style="enable-background:new 0 0 1125 2436;" xml:space="preserve">
<style type="text/css">
	.st0{fill:#B9007C;stroke:#000000;stroke-width:0.5;stroke-miterlimit:10;}
	.st1{fill:none;stroke:#000000;stroke-width:5;stroke-miterlimit:10;}
</style>
<polygon class="st0" points="466.57,1060.07 468.86,1057.26 592.6,906.53 609.47,946.77 629.97,1112.73 593.6,1078.7 
	570.37,1066.36 541.17,1059.27 520.22,1056.07 491.49,1056.07 "/>
<ellipse class="st1" cx="542.17" cy="1190.81" rx="299" ry="321.6"/>
<path id="path3007_2_" d="M595.47,1428.23c-7.7-10.7-15.8-21.5-26.9-21.5c-10.6-0.2-18.6,8.9-24,18.4c-6.9,12.2-12.8,45-13.4,49.1
	c2.2-4.5,20-39.3,38.1-40.5c19.2-1.2,40.6,17,42.9,19.1C610.87,1450.73,600.07,1434.73,595.47,1428.23z M502.67,1451.93
	c-11.4-22.1-22.1-47.6-41.1-47.4c-19.7,0.2-31.8,30-33.4,34.5c1.9-2.6,11.4-14.4,31.4-10.7c11.4,1.8,27.4,16.4,36.2,30.8
	c15.7,25.3,23.8,15.8,23.8,15.8S511.77,1469.63,502.67,1451.93z M678.77,1407.93c-4.8-8.5-13.1-21.9-23.8-21.5
	c-20.2,0.6-36.2,20.1-30.1,64.3c0,0,20.2-66.1,51.7-37.5c5.6,5.1,8.6,5.5,14.1,6.1C684.87,1416.03,681.37,1412.23,678.77,1407.93z
	 M374.97,1336.23c-4-4.5-8.3-8.1-13.1-8.1c-1.1,0-2.4,0-3.5,0.4c-6.9,2.2-10.2,16.6-10.9,24.7c-4,61.2,37.9,75.2,69.3,75.4
	C411.77,1383.23,392.77,1355.63,374.97,1336.23z M494.17,1314.33c0-2.6,4-3.9,4-3.9s-4.8-2.4-13.1-2.4c-5.9,0-10.1,3.6-10.1,3.6
	c3.2,4.3,7.8,8.5,13.6,8.5c3.5,0,7.5-1.4,10.1-3.6C498.67,1316.53,494.17,1316.33,494.17,1314.33z M724.37,1303.33h-1.1
	c-2.7,0.2-5.8,1.2-9.1,3.4c-24.3,16.2-15.5,95.1-14.7,101.8c0-5.9,0.6-60,22.1-73.2c13-7.9,27.8-0.2,27.8-0.2
	S741.17,1303.83,724.37,1303.33z M341.77,1294.23c-1.6-9.9,0.8-20.7,2.4-33.8c0,0-17,21.3-14.9,52.9c0.8,12.2,6.2,21.1,9.9,24.9
	c0.5-14,10.2-22.7,10.2-22.7S344.47,1310.83,341.77,1294.23z M748.77,1292.83c-2.1-8.7-2.7-16.8-3.4-24.1
	c-0.8-9.5-1.4-17.6-4.6-23.5c-2.9-5.3-8-8.7-17.4-9.7c0,1,0.2,46.8,31.5,73.8C751.97,1303.83,749.97,1298.13,748.77,1292.83z
	 M491.47,1231.23c-5.1,0-9,1.6-15.4,12c-2.6,4.5-5,8.5-7.7,12.2c-3,4.3-5.9,6.1-9.6,6.9c-9.8,1.6-16.2,0.6-23-2.6
	c5.4,4.7,17,10.5,25.1,8.9c4.8-0.8,8.6-3.6,11.5-7.1c3.5-4.3,5.9-7.9,9.1-12.6c3.2-5.1,8.5-10.9,10.9-11.1c1.6-0.2,2.6,0.8,2.6,2.4
	c0.2,1.6-0.8,4.1-1,4.5c1-0.4,4.3-2.6,4.3-5.5C498.37,1233.03,494.37,1231.23,491.47,1231.23z M497.27,1212.33h-1.6
	c-7.7,0.2-14.6,7.9-13.8,15.4c2.6-3.6,7.4-7.5,15.5-7.3c7.5,0.4,10.9,7.3,13.3,15.6C512.07,1224.93,510.87,1213.63,497.27,1212.33z
	 M563.97,1208.53c-8.2,9.7-17.3,17-33,25.1c-21.9,11.4-45.3,20.7-45.3,20.7c-1.4,3.2-4.6,7.7-7.4,11.4c0,0,31-11.8,48-19.7
	c7-3.2,13.4-6.5,17.9-9.7c1.4,0.8,3,4.1,3.2,7.1c2.9-10.3,6.2-15.2,9.9-15.4c1,0,1.4,0.2,1.9,0.8c5-5.3,10.4-12,13.6-20.3
	C572.77,1208.53,563.97,1208.53,563.97,1208.53z M493.37,1198.63c-4-3.4-7.8-8.1-11.2-13c0.5,5.7,1.3,13,6.9,18.2
	c5.3,4.9,14.1,5.7,20.2,5.3C503.67,1206.33,497.87,1202.83,493.37,1198.63z M462.97,1189.03c-3,3.9-7.2,7.7-9.4,9.3
	c-1.8,1.2-5.1,2.6-9.3,2.6l-5.3-4.7c-2.4-2.2-3.8-3.4-8.5-5.5c-3.8-1.6-9.6-6.1-9.6-6.1c1.8,4.7,10.9,21.3,20.6,31.2
	c1.1-1.6,2.4-3.2,3.5-4.9l-0.2,13.6c0,4.7-1.6,11.8-2.7,14.2c-2.4,5.1-4.5,8.1-4.5,8.1c4.2-0.2,9.4-3.9,11.2-6.7
	c1.9-3.2,2.9-8.7,3.2-13.2c0.5-8.1,2.1-16.8,2.1-16.8c3.8-5.7,6.2-8.7,11.4-14L462.97,1189.03z M587.97,1190.23
	c-1.3-6.9-7.4-8.3-12.8-8.1c-5.4,0.2-12.3,4.9-12,10.9c0.2,3.6,2.7,6.1,4.3,6.7c5.9,2,12.8,0.6,12.8,0.6c0.5,12-3.8,26.6-20.8,47.4
	c-0.3,2-0.6,4.1-1,5.5c-6.4,9.3-12,17.8-12,17.8s-4.3,6.3-8,10.5c-2.2-1.8-4.3-4.1-5-8.7c-2.7,5.9-3.5,16-12.3,17.8
	c-2.6,0.6-6.7-3.6-7.5-8.7c-1.4,3.4-3,5.9-5.8,8.5c-4.6-1.6-8.6-4.1-14.6-4.1c-9,0-17.9,0.4-26.9,7.7c0-2.6-1.6-4.5,0-9.1
	c0.6-2,2.4-5.3,2.4-7.7c0-4.3-4.6-7.1-8.8-3.9c1.8,0.6,3.7,2,3.7,5.5c0,2.8-1,3.6-1.6,7.3c-0.6,3.6,1.6,6.9-0.2,11.1
	c-0.5,1.6-1.8,3.4-1,5.5c0.6,1.6,3.5,2.2,5.6,1.4l9.1-2.6c4.2-1.4,8.3-1.8,12.5-1.4c5.8,0.4,11.5,0.8,16.5,5.1c4,3.6,8,3.9,11.8,3.9
	c13,0.2,18.9-9.3,26.1-16.6c13.1-13,21.9-28.6,29.6-44.2c0,0,6.1-11.4,9.1-17c3.2-6.1,5.4-11.4,6.6-18.9
	C589.27,1204.43,589.27,1198.63,587.97,1190.23z M573.07,1311.13c7-5.7,15.8-7.7,19.8-2.2c19.5,26.8,61.3,59.8,90.7,67.9
	c-20.5-17.2-68-49.5-80.3-81.9c-2.1-5.3-2.7-11.4,1.8-17c2.4-3.2,9.8-11.4,15.8-6.5c33.3,28.2,66.7,18.6,96.8,11.1
	c-29.3,1.4-53.8,8.7-86.5-19.3c-2.6-3.6-3.4-6.7-3.2-9.3c0.2-2.6,1.4-4.9,3.2-6.7c35.5,11.4,63.5,0.8,83.5-10.9
	c-26.9,3.9-49.1,6.5-81.6-4.9c2.7-6.7,3.4-8.3,2.4-15.4c16.3-4.7,24.5-9.5,32.5-16.4c13.4-11.8,14.2-22.1,14.2-22.1
	s-13.1,9.5-22.2,15c-13.9,8.5-23.7,12.8-36.5,13c0,0-3.2,23.1-6.7,34.9c-2.2,7.1-11.8,14-20.2,18.4c-5.8,3.2-14.6,9.5-20.3,16
	c-9.4,10.7-12.5,15.4-21.8,26.3c-6.9,8.1-13.4,17-22.1,23.3c-6.1,4.5-12.8,8.1-20,9.5c-10.7,2.4-21.9,1.6-32.5-0.6
	c-5.3-1.2-10.2-3.6-15-6.3c-6.9-4.1-9.3-10.1-9.6-17.8c-0.3-6.3,1.6-14.6,2.9-21.1c1.1-5.9,1.4-9.3-0.8-13.2
	c-1.6-2.6-7.5-4.1-13.3-6.1s-16.8-10.1-16.8-10.1c2.9-1.4,6.2-5.3,5.9-8.7c-10.2-7.9-15.2-18.2-16.2-29.4c-1-11.4-0.6-28.2-0.6-28.2
	s-24.6,0.8-38.6,14.6c-10.1,9.7-25.1,33.6-25.1,33.6c10.4-1.4,23-1.2,33,0.4c9.3,1.6,16.3,4.7,16.5,9.1c0.5,7.1-8.5,10.3-19.2,11.6
	c-9.9,1.2-21.4,0.8-28.3-0.2c-5.8-0.8,15.8,9.7,27.8,12.6c4.3,1,11.2,2,19.7,2.4c6.7,0.6,12.3,2.4,13,5.7
	c2.6,12.2-25.8,27.4-49.3,37.1c0,0,8.3,0.2,17.6-0.4c8.6-0.4,15.2-1.8,21.6-4.1c7.5-3,17.1-2.6,25.8,0.2c7.7,2.2,14.4,6.3,17.8,10.1
	c3.7,4.5,13.9,8.9,11.4,21.1c-1.9,8.9-8.5,13.6-13.1,20.9c-14.1,22.3-18.1,35.1-19.5,56.1c0,0,17.8-33.4,44.8-61.6
	c12.3-12.8,17.8-15.2,23.4-13.6c5.1,1.4,8.5,7.3,10.6,15.4c2.4,9.7,3.4,22.7,4,34.3c1.3,23.7,13.3,59.6,13.3,59.6
	c-2.7-39.3-3.5-90,13.6-106.6c5.9-5.9,12.3-7.1,17.1-2.4c14.1,14.2,43,48.8,54.6,66.5c-4.3-24.5-23.2-40.1-43.8-77.2
	C559.47,1328.13,565.27,1317.33,573.07,1311.13z M719.97,1190.03c-5.8-12.6-16.5-22.1-28.2-20.7c6.9,6.3,13.4,16.4,18.4,27.8
	c4.5,10.3,7.5,22.1,8.2,33.4C726.67,1219.23,725.67,1203.03,719.97,1190.03z M619.97,1166.33c-1.6,17.4-3.8,19.1-5.9,26.3
	c1.9-2.2,3.5-3.2,5.4-4.5c3.7-2.4,5.9-4.3,6.6-9.1C626.87,1172.23,623.67,1169.43,619.97,1166.33z M480.17,1164.33l-7.7,0.8
	c-2.2,2.4-3.4,6.1-3.4,8.3c0.3,6.5,6.4,13.2,6.4,13.2s-1.6-8.1-1-13.6C474.87,1170.63,477.87,1166.53,480.17,1164.33z
	 M555.67,1152.13c-7.7,14.6-14.9,21.3-26.4,27.8c-7.5,4.3-25.9,10.3-33.4,4.1l-7,1.8c11.7,10.9,30.1,17.4,41.4,21.3
	c20.8-24.1,28-41.6,30.1-58.2L555.67,1152.13z M522.37,1158.43c10.1-5.7,22.2-11.4,35.8-15.6c0,0-1.6,0-4.5,0c-8.6,0-28,1.2-44,9.5
	c-10.1,5.5-19.2,13.6-22.7,26.3l7.5-1.3c0,0,6.2-5.5,17-12.4c-0.2,0.6-0.3,1.2-0.3,1.8c0,0.6,0.2,1,0.2,1.6c0.6-1.4,2.1-2.4,3.7-2.4
	c2.2,0,4,2,4,4.3c0,2.2-1.8,4.1-3.8,4.1c1.3,1,2.9,1.4,4.6,1.4c4.8,0,8.5-3.9,8.5-8.9C528.27,1162.93,525.87,1159.43,522.37,1158.43
	z M632.27,1143.43c-1.8-1.6-4-2.4-6.1-2.2c-3.5,0.4-7,3-8.6,6.5c-1.9,3.6-3,8.1-4,12.4c-1.3,6.3-2.4,10.1-5.4,14
	c2.4-0.8,6.9-3.2,8.2-6.1c1.1-2.6,2.2-5.5,2.9-8.1c1.6-6.5,3.5-10.1,8.2-9.5c4.3,0.4,5.6,3.2,5.9,8.9
	C636.77,1153.83,635.67,1146.93,632.27,1143.43z M676.37,1144.03c-6.1-5.7-14.6-7.7-23-4.9c6.1,2.2,11.7,5.7,16.8,10.7
	c5,5.1,9.6,11.6,13.9,20.3C685.87,1158.83,682.37,1149.73,676.37,1144.03z M648.57,1149.13c-1.9-10.7-7-15.2-14.7-15.2
	c-1.1,0-2.2,0-3.5,0.2c5.6,1.8,9.6,7.3,10.9,14.8c1.4,7.3,1.4,12.2-2.7,18.6c-4.2,6.5-6.1,10.1-8,17.4c-1.4,5.1-2.4,8.1-6.1,13.8
	c6.4-1.4,10.7-3.2,11.7-7.5c1.9-7.9,4.5-11.1,8.3-18.2C648.57,1165.73,650.07,1157.63,648.57,1149.13z M462.97,1178.93
	c-4.2,1.4-8.8-1-11.7-3.4c-1.6-1.4-4-3-6.2-3.6c-1.6-0.6-4-0.6-5.6-0.4c-1.8,0-4.5,0-6.4-0.4c-2.9-0.8-4.2-2.2-5.3-5.5
	c-1.9-6.1-2.6-8.7-2.4-15.8c0.5-7.9,1.4-14.6,2.9-23.3c-3.2,1.6-7.2,7.1-9.6,18c-0.8,3.4-1.9,13.2-0.8,23.5c0.2,2.4,1,5.7,2.1,8.7
	c0,0,8,1.2,12.2,2.8c3.8,1.4,5.4,3.9,8.6,4.7c0.6-0.4,1.3-0.6,2.1-0.6c2.2,0,4,1.8,4,4.1c0,2.4-1.8,4.3-4,4.3h-0.6
	c1,0.8,2.1,1.6,3.4,1.8c3.7,1,7.5-1.2,8.5-5.1c0.2-1,0-1.8-0.3-2.6c3,0,6.2-2.8,9.1-5.1V1178.93z M649.27,1120.53
	c-2.4-2.2-6.9-2.4-12.8,1c3.4,0.8,5.9,2,8,4.1c2.1,1.8,3.5,4.3,5.1,7.9C652.47,1128.23,652.07,1123.23,649.27,1120.53z
	 M627.77,1093.63c-4-4.5-8.2-8.7-12.3-12.6l-9,11.1c8.6,8.1,17,17.6,24.5,29.4L627.77,1093.63z M624.87,1069.43l-5,6.1
	c2.1,2,4.3,4.3,6.4,6.5L624.87,1069.43z M598.67,1067.83l-9.1,11.4c2.1,1.2,4,2.6,6.1,4.1c1.9,1.4,3.7,2.8,5.4,4.3l9-11.1
	C606.37,1073.33,602.47,1070.53,598.67,1067.83z M615.97,1116.33c-12-22.9-36.6-34.5-60.3-43.2c-15.8-6.1-33.8-9.3-51.4-9.3
	c-12.5,0-36,2.8-41.8,7.3c-5.4,4.3-6.9,4.9-13.8,5.5c1,1.4,5.8,3,8.5,2.8c-1.8,3.2-6.7,5.5-11.7,5.9c2.7,3.2,6.9,3.6,10.6,1.6
	c-2.2,5.9-9.8,9.9-14.7,10.7c5.9,8.3,15,6.3,22.2,4.3c-9.4,9.9-19.7,17.6-37.9,20.7c2.4,0.2,11.4,1,13.8,1c14.2,0,21.3,1.8,29,10.1
	c20.8-21.3,39-47.4,77.8-40.5c22.6,4.1,32.8,21.9,34.4,41.6c1.1,14.4-5.1,29.2-12.6,39.7c11.8-0.4,26.1-1.4,35.8-10.5
	c1.8-10.9,9.4-25.1,18.7-30.6C621.27,1127.03,618.67,1121.33,615.97,1116.33z M579.67,1057.13l-9.3,11.6c3,1.4,6.2,2.8,9.4,4.7
	c1.3,0.6,2.4,1.2,3.7,2l9.1-11.4C588.27,1061.33,583.97,1059.13,579.67,1057.13z M612.47,1051.03l-9.1,11.1
	c3.8,2.6,7.5,5.5,11.2,8.7l9.1-11.1C619.97,1056.53,616.27,1053.63,612.47,1051.03z M558.67,1048.83l-9.9,12.4
	c2.9,0.8,5.9,1.6,8.8,2.6c2.1,0.6,4,1.2,5.9,2l9.4-11.8C568.07,1052.03,563.47,1050.43,558.67,1048.83z M535.17,1043.53l-10.7,13.2
	c1.4,0.2,2.9,0.4,4.3,0.6c1.8,0.2,3.5,0.4,5.1,0.6c0.3,0.2,0.6,0.2,1,0.2h0.5c1.8,0.4,3.5,0.8,5.3,1c0.2,0.2,0.3,0.2,0.5,0.2
	l10.2-12.6C545.87,1045.33,540.47,1044.33,535.17,1043.53z M509.57,1041.33l-11.8,14.6c5.9-0.2,12-0.2,18.2,0.2l11-13.6
	C520.87,1041.73,515.17,1041.53,509.57,1041.33z M482.57,1042.73c-0.6,0-1.3,0.2-1.9,0.2l-14.1,17.2c1.1-0.2,2.6-0.6,4.5-1
	c1.6-0.2,3.4-0.6,5-0.8c1.4-0.4,3-0.6,4.6-0.8c2.4-0.4,5-0.6,7.4-0.8l12.5-15.4C493.87,1041.53,487.77,1042.13,482.57,1042.73z
	 M621.57,1039.83l-4.5,5.3c1.9,1.4,3.8,2.8,5.6,4.3L621.57,1039.83z M593.87,1039.63l-9.4,11.4c4.3,2.2,8.6,4.5,13,7.3l9.1-11.4
	C602.37,1044.33,598.07,1041.93,593.87,1039.63z M573.57,1030.73l-9.8,12c4.6,1.4,9.4,3.2,14.1,5.3l9.4-11.6
	C582.67,1034.23,578.07,1032.33,573.57,1030.73z M550.97,1024.03l-10.4,12.8c5.1,1,10.4,2,15.8,3.4l9.9-12.2
	C561.07,1026.53,555.97,1025.33,550.97,1024.03z M607.97,1022.23l-9.3,11.4c4.3,2.2,8.5,4.9,12.6,7.5l9-11.1
	C616.27,1027.13,612.07,1024.63,607.97,1022.23z M542.37,1022.43c-5.4-1-10.7-1.6-15.7-2l-11.4,13.8c5.4,0.2,11.2,0.6,17.1,1.4
	l10.6-13C542.87,1022.43,542.67,1022.43,542.37,1022.43z M509.07,1019.43h-8.2c-0.5,0.2-0.8,0.2-1.4,0.2l-12.3,15.2
	c5.3-0.4,11.8-0.8,19.2-0.8l11.7-14.2C514.87,1019.63,511.97,1019.43,509.07,1019.43z M588.07,1012.73l-9.6,11.8
	c4.6,1.6,9.1,3.6,13.8,5.9l9.3-11.4C597.07,1016.53,592.57,1014.53,588.07,1012.73z M618.07,1009.63l-5.3,6.7
	c2.1,1.4,4.3,2.6,6.6,4.1L618.07,1009.63z M566.17,1005.23l-9.9,12.4c5,1.2,10.1,2.6,15.2,4.3l9.6-11.8
	C576.07,1008.23,571.17,1006.63,566.17,1005.23z M542.97,1000.13l-10.7,13.2c5.1,0.6,10.6,1.4,16.2,2.6l10.2-12.6
	C553.27,1001.93,548.07,1000.93,542.97,1000.13z M517.37,997.73l-11.7,14.2c5.3,0,11.4,0,18.1,0.6l11-13.4
	C528.57,998.33,522.67,997.93,517.37,997.73z M453.37,1068.43c-11-5.9-23.4-16.4-26.2-28.8c-2.6-10.5-0.2-26.1,11.8-43.4
	c-19,8.7-30.9,22.1-36,35.1c-5.8,14.2-4,33.2,3.2,47.8c-6.2-2.4-10.4-6.7-12.5-12.6c-1.9-5.7-1.9-13,0.3-22.1
	c-14.1,12.8-17.8,36.1-11.5,50.7c5.6,13.2,20.2,22.9,34.9,24.9c-6.9-4.9-12.5-12-14.4-19.1c9.8,5.5,21,7.5,31.7,2.4
	c-5.3-0.4-10.2-1.8-14.7-7.3c4.3,1.2,8-0.2,11.2-2.2c-3.5-1-7.2-1.4-10.2-6.5c4.2,0.4,8-0.4,10.7-3.6c-4.6-3-9-10.9-10.9-20.9
	C431.97,1072.13,438.67,1072.53,453.37,1068.43z M602.47,994.93l-9.6,11.8c4.5,2,9,4.1,13.4,6.3l9.3-11.4
	C611.17,999.13,606.87,996.93,602.47,994.93z M581.27,986.73l-9.9,12.4c5,1.4,9.8,3,14.7,4.9l9.8-12
	C590.87,990.03,586.07,988.43,581.27,986.73z M558.87,980.73l-10.6,13c5.1,1,10.2,2,15.5,3.4l10.1-12.6
	C568.77,983.13,563.77,981.73,558.87,980.73z M614.67,980.13l-7.5,9.1c3,1.4,6.1,2.8,9.1,4.5L614.67,980.13z M534.37,976.83
	l-11.2,13.8c5.3,0.4,11,1,17.1,1.8l10.6-13.2C545.27,978.23,539.67,977.43,534.37,976.83z M595.77,968.93l-9.8,12
	c4.8,1.4,9.6,3.2,14.4,5.3l9.4-11.6C605.27,972.43,600.47,970.53,595.77,968.93z M573.87,962.23l-10.1,12.6c5,1,9.9,2.2,15,3.9
	l9.8-12.2C583.67,964.93,578.87,963.43,573.87,962.23z M550.17,957.43l-10.9,13.2c5.3,0.6,10.9,1.6,16.5,2.6l10.4-12.8
	C560.77,959.23,555.27,958.23,550.17,957.43z M611.27,951.73c-0.3-0.2-0.8-0.4-1.1-0.4l-9.6,11.8c4.2,1.6,8.5,3.2,12.6,5.3
	L611.27,951.73z M598.17,946.83c-3.7,3.2-10.1,6.5-14.9,3.9l-4.5,5.5c4.8,1.2,9.8,2.6,14.6,4.3l9.8-12L598.17,946.83z
	 M574.67,930.03l-2.6-0.6l-16.8,21.7c5.1,0.8,10.4,1.8,15.8,3.2l7.7-9.5C576.47,940.73,575.27,935.53,574.67,930.03z M598.47,904.23
	c-1.4-0.4-2.9-0.6-4.3-0.6c-5.9,0-11.7,4.5-14.4,13.8c-3.2,11.1,6.7,27.8,6.7,27.8s17.1-7.7,20.5-19.1
	C610.17,914.83,606.07,906.73,598.47,904.23z"/>
</svg>
