<?xml version="1.0" encoding="utf-8"?>
<!-- Generator: Adobe Illustrator 24.0.2, SVG Export Plug-In . SVG Version: 6.00 Build 0)  -->
<svg version="1.1" id="Layer_1" xmlns="http://www.w3.org/2000/svg" xmlns:xlink="http://www.w3.org/1999/xlink" x="0px" y="0px"
	 viewBox="0 0 85.5 82.5" style="enable-background:new 0 0 85.5 82.5;" xml:space="preserve">
<style type="text/css">
	.st0{fill:#FFFFFF;stroke:#000000;stroke-miterlimit:10;}
</style>
<ellipse class="st0" cx="42.94" cy="40.62" rx="29.9" ry="32.16"/>
<path id="path3007_2_" d="M48.8,64.09c-0.77-1.07-1.58-2.15-2.69-2.15c-1.06-0.02-1.86,0.89-2.4,1.84c-0.69,1.22-1.28,4.5-1.34,4.91
	c0.22-0.45,2-3.93,3.81-4.05c1.92-0.12,4.06,1.7,4.29,1.91C50.34,66.34,49.26,64.74,48.8,64.09z M39.52,66.46
	c-1.14-2.21-2.21-4.76-4.11-4.74c-1.97,0.02-3.18,3-3.34,3.45c0.19-0.26,1.14-1.44,3.14-1.07c1.14,0.18,2.74,1.64,3.62,3.08
	c1.57,2.53,2.38,1.58,2.38,1.58S40.43,68.23,39.52,66.46z M57.13,62.06c-0.48-0.85-1.31-2.19-2.38-2.15
	c-2.02,0.06-3.62,2.01-3.01,6.43c0,0,2.02-6.61,5.17-3.75c0.56,0.51,0.86,0.55,1.41,0.61C57.74,62.87,57.39,62.49,57.13,62.06z
	 M26.75,54.89c-0.4-0.45-0.83-0.81-1.31-0.81c-0.11,0-0.24,0-0.35,0.04c-0.69,0.22-1.02,1.66-1.09,2.47
	c-0.4,6.12,3.79,7.52,6.93,7.54C30.43,59.59,28.53,56.83,26.75,54.89z M38.67,52.7c0-0.26,0.4-0.39,0.4-0.39s-0.48-0.24-1.31-0.24
	c-0.59,0-1.01,0.36-1.01,0.36c0.32,0.43,0.78,0.85,1.36,0.85c0.35,0,0.75-0.14,1.01-0.36C39.12,52.92,38.67,52.9,38.67,52.7z
	 M61.69,51.6h-0.11c-0.27,0.02-0.58,0.12-0.91,0.34c-2.43,1.62-1.55,9.51-1.47,10.18c0-0.59,0.06-6,2.21-7.32
	c1.3-0.79,2.78-0.02,2.78-0.02S63.37,51.65,61.69,51.6z M23.43,50.69c-0.16-0.99,0.08-2.07,0.24-3.38c0,0-1.7,2.13-1.49,5.29
	c0.08,1.22,0.62,2.11,0.99,2.49c0.05-1.4,1.02-2.27,1.02-2.27S23.7,52.35,23.43,50.69z M64.13,50.55c-0.21-0.87-0.27-1.68-0.34-2.41
	c-0.08-0.95-0.14-1.76-0.46-2.35c-0.29-0.53-0.8-0.87-1.74-0.97c0,0.1,0.02,4.68,3.15,7.38C64.45,51.65,64.25,51.08,64.13,50.55z
	 M38.4,44.39c-0.51,0-0.9,0.16-1.54,1.2c-0.26,0.45-0.5,0.85-0.77,1.22c-0.3,0.43-0.59,0.61-0.96,0.69
	c-0.98,0.16-1.62,0.06-2.3-0.26c0.54,0.47,1.7,1.05,2.51,0.89c0.48-0.08,0.86-0.36,1.15-0.71c0.35-0.43,0.59-0.79,0.91-1.26
	c0.32-0.51,0.85-1.09,1.09-1.11c0.16-0.02,0.26,0.08,0.26,0.24c0.02,0.16-0.08,0.41-0.1,0.45c0.1-0.04,0.43-0.26,0.43-0.55
	C39.09,44.57,38.69,44.39,38.4,44.39z M38.98,42.5h-0.16c-0.77,0.02-1.46,0.79-1.38,1.54c0.26-0.36,0.74-0.75,1.55-0.73
	c0.75,0.04,1.09,0.73,1.33,1.56C40.46,43.76,40.34,42.63,38.98,42.5z M45.65,42.12c-0.82,0.97-1.73,1.7-3.3,2.51
	c-2.19,1.14-4.53,2.07-4.53,2.07c-0.14,0.32-0.46,0.77-0.74,1.14c0,0,3.1-1.18,4.8-1.97c0.7-0.32,1.34-0.65,1.79-0.97
	c0.14,0.08,0.3,0.41,0.32,0.71c0.29-1.03,0.62-1.52,0.99-1.54c0.1,0,0.14,0.02,0.19,0.08c0.5-0.53,1.04-1.2,1.36-2.03H45.65z
	 M38.59,41.13c-0.4-0.34-0.78-0.81-1.12-1.3c0.05,0.57,0.13,1.3,0.69,1.82c0.53,0.49,1.41,0.57,2.02,0.53
	C39.62,41.9,39.04,41.55,38.59,41.13z M35.55,40.17c-0.3,0.39-0.72,0.77-0.94,0.93c-0.18,0.12-0.51,0.26-0.93,0.26l-0.53-0.47
	c-0.24-0.22-0.38-0.34-0.85-0.55c-0.38-0.16-0.96-0.61-0.96-0.61c0.18,0.47,1.09,2.13,2.06,3.12c0.11-0.16,0.24-0.32,0.35-0.49
	l-0.02,1.36c0,0.47-0.16,1.18-0.27,1.42c-0.24,0.51-0.45,0.81-0.45,0.81c0.42-0.02,0.94-0.39,1.12-0.67
	c0.19-0.32,0.29-0.87,0.32-1.32c0.05-0.81,0.21-1.68,0.21-1.68c0.38-0.57,0.62-0.87,1.14-1.4L35.55,40.17z M48.05,40.29
	c-0.13-0.69-0.74-0.83-1.28-0.81c-0.54,0.02-1.23,0.49-1.2,1.09c0.02,0.36,0.27,0.61,0.43,0.67c0.59,0.2,1.28,0.06,1.28,0.06
	c0.05,1.2-0.38,2.66-2.08,4.74c-0.03,0.2-0.06,0.41-0.1,0.55c-0.64,0.93-1.2,1.78-1.2,1.78s-0.43,0.63-0.8,1.05
	c-0.22-0.18-0.43-0.41-0.5-0.87c-0.27,0.59-0.35,1.6-1.23,1.78c-0.26,0.06-0.67-0.36-0.75-0.87c-0.14,0.34-0.3,0.59-0.58,0.85
	c-0.46-0.16-0.86-0.41-1.46-0.41c-0.9,0-1.79,0.04-2.69,0.77c0-0.26-0.16-0.45,0-0.91c0.06-0.2,0.24-0.53,0.24-0.77
	c0-0.43-0.46-0.71-0.88-0.39c0.18,0.06,0.37,0.2,0.37,0.55c0,0.28-0.1,0.36-0.16,0.73c-0.06,0.36,0.16,0.69-0.02,1.11
	c-0.05,0.16-0.18,0.34-0.1,0.55c0.06,0.16,0.35,0.22,0.56,0.14l0.91-0.26c0.42-0.14,0.83-0.18,1.25-0.14
	c0.58,0.04,1.15,0.08,1.65,0.51c0.4,0.36,0.8,0.39,1.18,0.39c1.3,0.02,1.89-0.93,2.61-1.66c1.31-1.3,2.19-2.86,2.96-4.42
	c0,0,0.61-1.14,0.91-1.7c0.32-0.61,0.54-1.14,0.66-1.89C48.18,41.71,48.18,41.13,48.05,40.29z M46.56,52.38
	c0.7-0.57,1.58-0.77,1.98-0.22c1.95,2.68,6.13,5.98,9.07,6.79c-2.05-1.72-6.8-4.95-8.03-8.19c-0.21-0.53-0.27-1.14,0.18-1.7
	c0.24-0.32,0.98-1.14,1.58-0.65c3.33,2.82,6.67,1.86,9.68,1.11c-2.93,0.14-5.38,0.87-8.65-1.93c-0.26-0.36-0.34-0.67-0.32-0.93
	c0.02-0.26,0.14-0.49,0.32-0.67c3.55,1.14,6.35,0.08,8.35-1.09c-2.69,0.39-4.91,0.65-8.16-0.49c0.27-0.67,0.34-0.83,0.24-1.54
	c1.63-0.47,2.45-0.95,3.25-1.64c1.34-1.18,1.42-2.21,1.42-2.21s-1.31,0.95-2.22,1.5c-1.39,0.85-2.37,1.28-3.65,1.3
	c0,0-0.32,2.31-0.67,3.49c-0.22,0.71-1.18,1.4-2.02,1.84c-0.58,0.32-1.46,0.95-2.03,1.6c-0.94,1.07-1.25,1.54-2.18,2.63
	c-0.69,0.81-1.34,1.7-2.21,2.33c-0.61,0.45-1.28,0.81-2,0.95c-1.07,0.24-2.19,0.16-3.25-0.06c-0.53-0.12-1.02-0.36-1.5-0.63
	c-0.69-0.41-0.93-1.01-0.96-1.78c-0.03-0.63,0.16-1.46,0.29-2.11c0.11-0.59,0.14-0.93-0.08-1.32c-0.16-0.26-0.75-0.41-1.33-0.61
	c-0.58-0.2-1.68-1.01-1.68-1.01c0.29-0.14,0.62-0.53,0.59-0.87c-1.02-0.79-1.52-1.82-1.62-2.94c-0.1-1.14-0.06-2.82-0.06-2.82
	s-2.46,0.08-3.86,1.46c-1.01,0.97-2.51,3.36-2.51,3.36c1.04-0.14,2.3-0.12,3.3,0.04c0.93,0.16,1.63,0.47,1.65,0.91
	c0.05,0.71-0.85,1.03-1.92,1.16c-0.99,0.12-2.14,0.08-2.83-0.02c-0.58-0.08,1.58,0.97,2.78,1.26c0.43,0.1,1.12,0.2,1.97,0.24
	c0.67,0.06,1.23,0.24,1.3,0.57c0.26,1.22-2.58,2.74-4.93,3.71c0,0,0.83,0.02,1.76-0.04c0.86-0.04,1.52-0.18,2.16-0.41
	c0.75-0.3,1.71-0.26,2.58,0.02c0.77,0.22,1.44,0.63,1.78,1.01c0.37,0.45,1.39,0.89,1.14,2.11c-0.19,0.89-0.85,1.36-1.31,2.09
	c-1.41,2.23-1.81,3.51-1.95,5.61c0,0,1.78-3.34,4.48-6.16c1.23-1.28,1.78-1.52,2.34-1.36c0.51,0.14,0.85,0.73,1.06,1.54
	c0.24,0.97,0.34,2.27,0.4,3.43c0.13,2.37,1.33,5.96,1.33,5.96c-0.27-3.93-0.35-9,1.36-10.66c0.59-0.59,1.23-0.71,1.71-0.24
	c1.41,1.42,4.3,4.88,5.46,6.65c-0.43-2.45-2.32-4.01-4.38-7.72C45.2,54.08,45.78,53,46.56,52.38z M61.25,40.27
	c-0.58-1.26-1.65-2.21-2.82-2.07c0.69,0.63,1.34,1.64,1.84,2.78c0.45,1.03,0.75,2.21,0.82,3.34C61.92,43.19,61.82,41.57,61.25,40.27
	z M51.25,37.9c-0.16,1.74-0.38,1.91-0.59,2.63c0.19-0.22,0.35-0.32,0.54-0.45c0.37-0.24,0.59-0.43,0.66-0.91
	C51.94,38.49,51.62,38.21,51.25,37.9z M37.27,37.7l-0.77,0.08c-0.22,0.24-0.34,0.61-0.34,0.83c0.03,0.65,0.64,1.32,0.64,1.32
	s-0.16-0.81-0.1-1.36C36.74,38.33,37.04,37.92,37.27,37.7z M44.82,36.48c-0.77,1.46-1.49,2.13-2.64,2.78
	c-0.75,0.43-2.59,1.03-3.34,0.41l-0.7,0.18c1.17,1.09,3.01,1.74,4.14,2.13c2.08-2.41,2.8-4.16,3.01-5.82L44.82,36.48z M41.49,37.11
	c1.01-0.57,2.22-1.14,3.58-1.56c0,0-0.16,0-0.45,0c-0.86,0-2.8,0.12-4.4,0.95c-1.01,0.55-1.92,1.36-2.27,2.63L38.7,39
	c0,0,0.62-0.55,1.7-1.24c-0.02,0.06-0.03,0.12-0.03,0.18c0,0.06,0.02,0.1,0.02,0.16c0.06-0.14,0.21-0.24,0.37-0.24
	c0.22,0,0.4,0.2,0.4,0.43c0,0.22-0.18,0.41-0.38,0.41c0.13,0.1,0.29,0.14,0.46,0.14c0.48,0,0.85-0.39,0.85-0.89
	C42.08,37.56,41.84,37.21,41.49,37.11z M52.48,35.61c-0.18-0.16-0.4-0.24-0.61-0.22c-0.35,0.04-0.7,0.3-0.86,0.65
	c-0.19,0.36-0.3,0.81-0.4,1.24c-0.13,0.63-0.24,1.01-0.54,1.4c0.24-0.08,0.69-0.32,0.82-0.61c0.11-0.26,0.22-0.55,0.29-0.81
	c0.16-0.65,0.35-1.01,0.82-0.95c0.43,0.04,0.56,0.32,0.59,0.89C52.93,36.65,52.82,35.96,52.48,35.61z M56.89,35.67
	c-0.61-0.57-1.46-0.77-2.3-0.49c0.61,0.22,1.17,0.57,1.68,1.07c0.5,0.51,0.96,1.16,1.39,2.03C57.84,37.15,57.49,36.24,56.89,35.67z
	 M54.11,36.18c-0.19-1.07-0.7-1.52-1.47-1.52c-0.11,0-0.22,0-0.35,0.02c0.56,0.18,0.96,0.73,1.09,1.48
	c0.14,0.73,0.14,1.22-0.27,1.86c-0.42,0.65-0.61,1.01-0.8,1.74c-0.14,0.51-0.24,0.81-0.61,1.38c0.64-0.14,1.07-0.32,1.17-0.75
	c0.19-0.79,0.45-1.11,0.83-1.82C54.11,37.84,54.26,37.03,54.11,36.18z M35.55,39.16c-0.42,0.14-0.88-0.1-1.17-0.34
	c-0.16-0.14-0.4-0.3-0.62-0.36c-0.16-0.06-0.4-0.06-0.56-0.04c-0.18,0-0.45,0-0.64-0.04c-0.29-0.08-0.42-0.22-0.53-0.55
	c-0.19-0.61-0.26-0.87-0.24-1.58c0.05-0.79,0.14-1.46,0.29-2.33c-0.32,0.16-0.72,0.71-0.96,1.8c-0.08,0.34-0.19,1.32-0.08,2.35
	c0.02,0.24,0.1,0.57,0.21,0.87c0,0,0.8,0.12,1.22,0.28c0.38,0.14,0.54,0.39,0.86,0.47c0.06-0.04,0.13-0.06,0.21-0.06
	c0.22,0,0.4,0.18,0.4,0.41c0,0.24-0.18,0.43-0.4,0.43h-0.06c0.1,0.08,0.21,0.16,0.34,0.18c0.37,0.1,0.75-0.12,0.85-0.51
	c0.02-0.1,0-0.18-0.03-0.26c0.3,0,0.62-0.28,0.91-0.51L35.55,39.16z M54.18,33.32c-0.24-0.22-0.69-0.24-1.28,0.1
	c0.34,0.08,0.59,0.2,0.8,0.41c0.21,0.18,0.35,0.43,0.51,0.79C54.5,34.09,54.46,33.59,54.18,33.32z M52.03,30.63
	c-0.4-0.45-0.82-0.87-1.23-1.26l-0.9,1.11c0.86,0.81,1.7,1.76,2.45,2.94L52.03,30.63z M51.74,28.21l-0.5,0.61
	c0.21,0.2,0.43,0.43,0.64,0.65L51.74,28.21z M49.12,28.05l-0.91,1.14c0.21,0.12,0.4,0.26,0.61,0.41c0.19,0.14,0.37,0.28,0.54,0.43
	l0.9-1.11C49.89,28.6,49.5,28.32,49.12,28.05z M50.85,32.9c-1.2-2.29-3.66-3.45-6.03-4.32c-1.58-0.61-3.38-0.93-5.14-0.93
	c-1.25,0-3.6,0.28-4.18,0.73c-0.54,0.43-0.69,0.49-1.38,0.55c0.1,0.14,0.58,0.3,0.85,0.28c-0.18,0.32-0.67,0.55-1.17,0.59
	c0.27,0.32,0.69,0.36,1.06,0.16c-0.22,0.59-0.98,0.99-1.47,1.07c0.59,0.83,1.5,0.63,2.22,0.43c-0.94,0.99-1.97,1.76-3.79,2.07
	c0.24,0.02,1.14,0.1,1.38,0.1c1.42,0,2.13,0.18,2.9,1.01c2.08-2.13,3.9-4.74,7.78-4.05c2.26,0.41,3.28,2.19,3.44,4.16
	c0.11,1.44-0.51,2.92-1.26,3.97c1.18-0.04,2.61-0.14,3.58-1.05c0.18-1.09,0.94-2.51,1.87-3.06C51.38,33.97,51.12,33.4,50.85,32.9z
	 M47.22,26.98l-0.93,1.16c0.3,0.14,0.62,0.28,0.94,0.47c0.13,0.06,0.24,0.12,0.37,0.2l0.91-1.14C48.08,27.4,47.65,27.18,47.22,26.98
	z M50.5,26.37l-0.91,1.11c0.38,0.26,0.75,0.55,1.12,0.87l0.91-1.11C51.25,26.92,50.88,26.63,50.5,26.37z M45.12,26.15l-0.99,1.24
	c0.29,0.08,0.59,0.16,0.88,0.26c0.21,0.06,0.4,0.12,0.59,0.2l0.94-1.18C46.06,26.47,45.6,26.31,45.12,26.15z M42.77,25.62
	l-1.07,1.32c0.14,0.02,0.29,0.04,0.43,0.06c0.18,0.02,0.35,0.04,0.51,0.06c0.03,0.02,0.06,0.02,0.1,0.02h0.05
	c0.18,0.04,0.35,0.08,0.53,0.1c0.02,0.02,0.03,0.02,0.05,0.02l1.02-1.26C43.84,25.8,43.3,25.7,42.77,25.62z M40.21,25.4l-1.18,1.46
	c0.59-0.02,1.2-0.02,1.82,0.02l1.1-1.36C41.34,25.44,40.77,25.42,40.21,25.4z M37.51,25.54c-0.06,0-0.13,0.02-0.19,0.02l-1.41,1.72
	c0.11-0.02,0.26-0.06,0.45-0.1c0.16-0.02,0.34-0.06,0.5-0.08c0.14-0.04,0.3-0.06,0.46-0.08c0.24-0.04,0.5-0.06,0.74-0.08l1.25-1.54
	C38.64,25.42,38.03,25.48,37.51,25.54z M51.41,25.25l-0.45,0.53c0.19,0.14,0.38,0.28,0.56,0.43L51.41,25.25z M48.64,25.23
	l-0.94,1.14c0.43,0.22,0.86,0.45,1.3,0.73l0.91-1.14C49.49,25.7,49.06,25.46,48.64,25.23z M46.61,24.34l-0.98,1.2
	c0.46,0.14,0.94,0.32,1.41,0.53l0.94-1.16C47.52,24.69,47.06,24.5,46.61,24.34z M44.35,23.67l-1.04,1.28
	c0.51,0.1,1.04,0.2,1.58,0.34l0.99-1.22C45.36,23.92,44.85,23.8,44.35,23.67z M50.05,23.49l-0.93,1.14
	c0.43,0.22,0.85,0.49,1.26,0.75l0.9-1.11C50.88,23.98,50.46,23.73,50.05,23.49z M43.49,23.51c-0.54-0.1-1.07-0.16-1.57-0.2
	l-1.14,1.38c0.54,0.02,1.12,0.06,1.71,0.14l1.06-1.3C43.54,23.51,43.52,23.51,43.49,23.51z M40.16,23.21h-0.82
	c-0.05,0.02-0.08,0.02-0.14,0.02l-1.23,1.52c0.53-0.04,1.18-0.08,1.92-0.08l1.17-1.42C40.74,23.23,40.45,23.21,40.16,23.21z
	 M48.06,22.54l-0.96,1.18c0.46,0.16,0.91,0.36,1.38,0.59l0.93-1.14C48.96,22.92,48.51,22.72,48.06,22.54z M51.06,22.23l-0.53,0.67
	c0.21,0.14,0.43,0.26,0.66,0.41L51.06,22.23z M45.87,21.79l-0.99,1.24c0.5,0.12,1.01,0.26,1.52,0.43l0.96-1.18
	C46.86,22.09,46.37,21.93,45.87,21.79z M43.55,21.28l-1.07,1.32c0.51,0.06,1.06,0.14,1.62,0.26l1.02-1.26
	C44.58,21.46,44.06,21.36,43.55,21.28z M40.99,21.04l-1.17,1.42c0.53,0,1.14,0,1.81,0.06l1.1-1.34
	C42.11,21.1,41.52,21.06,40.99,21.04z M34.59,28.11c-1.1-0.59-2.34-1.64-2.62-2.88c-0.26-1.05-0.02-2.61,1.18-4.34
	c-1.9,0.87-3.09,2.21-3.6,3.51c-0.58,1.42-0.4,3.32,0.32,4.78c-0.62-0.24-1.04-0.67-1.25-1.26c-0.19-0.57-0.19-1.3,0.03-2.21
	c-1.41,1.28-1.78,3.61-1.15,5.07c0.56,1.32,2.02,2.29,3.49,2.49c-0.69-0.49-1.25-1.2-1.44-1.91c0.98,0.55,2.1,0.75,3.17,0.24
	c-0.53-0.04-1.02-0.18-1.47-0.73c0.43,0.12,0.8-0.02,1.12-0.22c-0.35-0.1-0.72-0.14-1.02-0.65c0.42,0.04,0.8-0.04,1.07-0.36
	c-0.46-0.3-0.9-1.09-1.09-2.09C32.45,28.48,33.12,28.52,34.59,28.11z M49.5,20.76l-0.96,1.18c0.45,0.2,0.9,0.41,1.34,0.63l0.93-1.14
	C50.37,21.18,49.94,20.96,49.5,20.76z M47.38,19.94l-0.99,1.24c0.5,0.14,0.98,0.3,1.47,0.49l0.98-1.2
	C48.34,20.27,47.86,20.11,47.38,19.94z M45.14,19.34l-1.06,1.3c0.51,0.1,1.02,0.2,1.55,0.34l1.01-1.26
	C46.13,19.58,45.63,19.44,45.14,19.34z M50.72,19.28l-0.75,0.91c0.3,0.14,0.61,0.28,0.91,0.45L50.72,19.28z M42.69,18.95l-1.12,1.38
	c0.53,0.04,1.1,0.1,1.71,0.18l1.06-1.32C43.78,19.09,43.22,19.01,42.69,18.95z M48.83,18.16l-0.98,1.2
	c0.48,0.14,0.96,0.32,1.44,0.53l0.94-1.16C49.78,18.51,49.3,18.32,48.83,18.16z M46.64,17.49l-1.01,1.26c0.5,0.1,0.99,0.22,1.5,0.39
	l0.98-1.22C47.62,17.76,47.14,17.61,46.64,17.49z M44.27,17.01l-1.09,1.32c0.53,0.06,1.09,0.16,1.65,0.26l1.04-1.28
	C45.33,17.19,44.78,17.09,44.27,17.01z M50.38,16.44c-0.03-0.02-0.08-0.04-0.11-0.04l-0.96,1.18c0.42,0.16,0.85,0.32,1.26,0.53
	L50.38,16.44z M49.07,15.95c-0.37,0.32-1.01,0.65-1.49,0.39l-0.45,0.55c0.48,0.12,0.98,0.26,1.46,0.43l0.98-1.2L49.07,15.95z
	 M46.72,14.27l-0.26-0.06l-1.68,2.17c0.51,0.08,1.04,0.18,1.58,0.32l0.77-0.95C46.9,15.34,46.78,14.82,46.72,14.27z M49.1,11.69
	c-0.14-0.04-0.29-0.06-0.43-0.06c-0.59,0-1.17,0.45-1.44,1.38c-0.32,1.11,0.67,2.78,0.67,2.78s1.71-0.77,2.05-1.91
	C50.27,12.75,49.86,11.94,49.1,11.69z"/>
</svg>
