<?xml version="1.0" encoding="utf-8"?>
<!-- Generator: Adobe Illustrator 24.0.2, SVG Export Plug-In . SVG Version: 6.00 Build 0)  -->
<svg version="1.1" id="Layer_1" xmlns="http://www.w3.org/2000/svg" xmlns:xlink="http://www.w3.org/1999/xlink" x="0px" y="0px"
	 viewBox="0 0 85.5 82.5" style="enable-background:new 0 0 85.5 82.5;" xml:space="preserve">
<style type="text/css">
	.st0{fill:none;stroke:#000000;stroke-miterlimit:10;}
</style>
<ellipse class="st0" cx="42.8" cy="41.2" rx="29.9" ry="32.2"/>
<path id="path3007_2_" d="M47.9,64.4c-0.8-1.1-1.6-2.2-2.7-2.2c-1.1,0-1.9,0.9-2.4,1.8c-0.7,1.2-1.3,4.5-1.3,4.9
	c0.2-0.4,2-3.9,3.8-4.1c1.9-0.1,4.1,1.7,4.3,1.9C49.5,66.7,48.4,65.1,47.9,64.4z M38.6,66.8c-1.1-2.2-2.2-4.8-4.1-4.7
	c-2,0-3.2,3-3.3,3.4c0.2-0.3,1.1-1.4,3.1-1.1c1.1,0.2,2.7,1.6,3.6,3.1c1.6,2.5,2.4,1.6,2.4,1.6S39.5,68.5,38.6,66.8z M56.2,62.4
	c-0.5-0.8-1.3-2.2-2.4-2.2c-2,0.1-3.6,2-3,6.4c0,0,2-6.6,5.2-3.8c0.6,0.5,0.9,0.5,1.4,0.6C56.9,63.2,56.5,62.8,56.2,62.4z
	 M25.9,55.2c-0.4-0.5-0.8-0.8-1.3-0.8c-0.1,0-0.2,0-0.4,0c-0.7,0.2-1,1.7-1.1,2.5c-0.4,6.1,3.8,7.5,6.9,7.5
	C29.5,59.9,27.6,57.1,25.9,55.2z M37.8,53c0-0.3,0.4-0.4,0.4-0.4s-0.5-0.2-1.3-0.2c-0.6,0-1,0.4-1,0.4c0.3,0.4,0.8,0.8,1.4,0.8
	c0.3,0,0.8-0.1,1-0.4C38.2,53.2,37.8,53.2,37.8,53z M60.8,51.9h-0.1c-0.3,0-0.6,0.1-0.9,0.3c-2.4,1.6-1.5,9.5-1.5,10.2
	c0-0.6,0.1-6,2.2-7.3c1.3-0.8,2.8,0,2.8,0S62.5,52,60.8,51.9z M22.5,51c-0.2-1,0.1-2.1,0.2-3.4c0,0-1.7,2.1-1.5,5.3
	c0.1,1.2,0.6,2.1,1,2.5c0-1.4,1-2.3,1-2.3S22.8,52.7,22.5,51z M63.2,50.9C63,50,63,49.2,62.9,48.5c-0.1-1-0.1-1.8-0.5-2.3
	c-0.3-0.5-0.8-0.9-1.7-1c0,0.1,0,4.7,3.2,7.4C63.6,52,63.4,51.4,63.2,50.9z M37.5,44.7c-0.5,0-0.9,0.2-1.5,1.2
	c-0.3,0.5-0.5,0.8-0.8,1.2c-0.3,0.4-0.6,0.6-1,0.7c-1,0.2-1.6,0.1-2.3-0.3c0.5,0.5,1.7,1,2.5,0.9c0.5-0.1,0.9-0.4,1.2-0.7
	c0.3-0.4,0.6-0.8,0.9-1.3c0.3-0.5,0.8-1.1,1.1-1.1c0.2,0,0.3,0.1,0.3,0.2c0,0.2-0.1,0.4-0.1,0.5c0.1,0,0.4-0.3,0.4-0.5
	C38.2,44.9,37.8,44.7,37.5,44.7z M38.1,42.8h-0.2c-0.8,0-1.5,0.8-1.4,1.5c0.3-0.4,0.7-0.8,1.5-0.7c0.8,0,1.1,0.7,1.3,1.6
	C39.6,44.1,39.5,42.9,38.1,42.8z M44.8,42.4c-0.8,1-1.7,1.7-3.3,2.5c-2.2,1.1-4.5,2.1-4.5,2.1c-0.1,0.3-0.5,0.8-0.7,1.1
	c0,0,3.1-1.2,4.8-2c0.7-0.3,1.3-0.7,1.8-1c0.1,0.1,0.3,0.4,0.3,0.7c0.3-1,0.6-1.5,1-1.5c0.1,0,0.1,0,0.2,0.1c0.5-0.5,1-1.2,1.4-2
	C45.6,42.4,44.8,42.4,44.8,42.4z M37.7,41.4c-0.4-0.3-0.8-0.8-1.1-1.3c0,0.6,0.1,1.3,0.7,1.8c0.5,0.5,1.4,0.6,2,0.5
	C38.7,42.2,38.2,41.9,37.7,41.4z M34.7,40.5c-0.3,0.4-0.7,0.8-0.9,0.9c-0.2,0.1-0.5,0.3-0.9,0.3l-0.5-0.5c-0.2-0.2-0.4-0.3-0.8-0.5
	c-0.4-0.2-1-0.6-1-0.6c0.2,0.5,1.1,2.1,2.1,3.1c0.1-0.2,0.2-0.3,0.3-0.5l0,1.4c0,0.5-0.2,1.2-0.3,1.4c-0.2,0.5-0.5,0.8-0.5,0.8
	c0.4,0,0.9-0.4,1.1-0.7c0.2-0.3,0.3-0.9,0.3-1.3c0-0.8,0.2-1.7,0.2-1.7c0.4-0.6,0.6-0.9,1.1-1.4L34.7,40.5z M47.2,40.6
	c-0.1-0.7-0.7-0.8-1.3-0.8c-0.5,0-1.2,0.5-1.2,1.1c0,0.4,0.3,0.6,0.4,0.7c0.6,0.2,1.3,0.1,1.3,0.1c0,1.2-0.4,2.7-2.1,4.7
	c0,0.2-0.1,0.4-0.1,0.5c-0.6,0.9-1.2,1.8-1.2,1.8s-0.4,0.6-0.8,1c-0.2-0.2-0.4-0.4-0.5-0.9c-0.3,0.6-0.3,1.6-1.2,1.8
	c-0.3,0.1-0.7-0.4-0.8-0.9c-0.1,0.3-0.3,0.6-0.6,0.8c-0.5-0.2-0.9-0.4-1.5-0.4c-0.9,0-1.8,0-2.7,0.8c0-0.3-0.2-0.5,0-0.9
	c0.1-0.2,0.2-0.5,0.2-0.8c0-0.4-0.5-0.7-0.9-0.4c0.2,0.1,0.4,0.2,0.4,0.5c0,0.3-0.1,0.4-0.2,0.7c-0.1,0.4,0.2,0.7,0,1.1
	c0,0.2-0.2,0.3-0.1,0.5c0.1,0.2,0.3,0.2,0.6,0.1l0.9-0.3c0.4-0.1,0.8-0.2,1.2-0.1c0.6,0,1.2,0.1,1.7,0.5c0.4,0.4,0.8,0.4,1.2,0.4
	c1.3,0,1.9-0.9,2.6-1.7c1.3-1.3,2.2-2.9,3-4.4c0,0,0.6-1.1,0.9-1.7c0.3-0.6,0.5-1.1,0.7-1.9C47.3,42,47.3,41.4,47.2,40.6z
	 M45.7,52.7c0.7-0.6,1.6-0.8,2-0.2c2,2.7,6.1,6,9.1,6.8c-2-1.7-6.8-5-8-8.2c-0.2-0.5-0.3-1.1,0.2-1.7c0.2-0.3,1-1.1,1.6-0.7
	c3.3,2.8,6.7,1.9,9.7,1.1c-2.9,0.1-5.4,0.9-8.7-1.9c-0.3-0.4-0.3-0.7-0.3-0.9c0-0.3,0.1-0.5,0.3-0.7c3.5,1.1,6.3,0.1,8.3-1.1
	c-2.7,0.4-4.9,0.7-8.2-0.5c0.3-0.7,0.3-0.8,0.2-1.5c1.6-0.5,2.5-1,3.2-1.6c1.3-1.2,1.4-2.2,1.4-2.2s-1.3,1-2.2,1.5
	c-1.4,0.8-2.4,1.3-3.7,1.3c0,0-0.3,2.3-0.7,3.5c-0.2,0.7-1.2,1.4-2,1.8c-0.6,0.3-1.5,1-2,1.6c-0.9,1.1-1.2,1.5-2.2,2.6
	c-0.7,0.8-1.3,1.7-2.2,2.3c-0.6,0.5-1.3,0.8-2,1c-1.1,0.2-2.2,0.2-3.2-0.1c-0.5-0.1-1-0.4-1.5-0.6c-0.7-0.4-0.9-1-1-1.8
	c0-0.6,0.2-1.5,0.3-2.1c0.1-0.6,0.1-0.9-0.1-1.3c-0.2-0.3-0.8-0.4-1.3-0.6s-1.7-1-1.7-1c0.3-0.1,0.6-0.5,0.6-0.9
	c-1-0.8-1.5-1.8-1.6-2.9C30,42.5,30,40.8,30,40.8s-2.5,0.1-3.9,1.5c-1,1-2.5,3.4-2.5,3.4c1-0.1,2.3-0.1,3.3,0
	c0.9,0.2,1.6,0.5,1.6,0.9c0,0.7-0.9,1-1.9,1.2c-1,0.1-2.1,0.1-2.8,0c-0.6-0.1,1.6,1,2.8,1.3c0.4,0.1,1.1,0.2,2,0.2
	c0.7,0.1,1.2,0.2,1.3,0.6c0.3,1.2-2.6,2.7-4.9,3.7c0,0,0.8,0,1.8,0c0.9,0,1.5-0.2,2.2-0.4c0.8-0.3,1.7-0.3,2.6,0
	c0.8,0.2,1.4,0.6,1.8,1c0.4,0.5,1.4,0.9,1.1,2.1c-0.2,0.9-0.8,1.4-1.3,2.1c-1.4,2.2-1.8,3.5-2,5.6c0,0,1.8-3.3,4.5-6.2
	c1.2-1.3,1.8-1.5,2.3-1.4c0.5,0.1,0.8,0.7,1.1,1.5c0.2,1,0.3,2.3,0.4,3.4c0.1,2.4,1.3,6,1.3,6c-0.3-3.9-0.3-9,1.4-10.7
	c0.6-0.6,1.2-0.7,1.7-0.2c1.4,1.4,4.3,4.9,5.5,6.7c-0.4-2.5-2.3-4-4.4-7.7C44.3,54.4,44.9,53.3,45.7,52.7z M60.4,40.6
	c-0.6-1.3-1.7-2.2-2.8-2.1c0.7,0.6,1.3,1.6,1.8,2.8c0.5,1,0.8,2.2,0.8,3.3C61,43.5,60.9,41.9,60.4,40.6z M50.4,38.2
	c-0.2,1.7-0.4,1.9-0.6,2.6c0.2-0.2,0.3-0.3,0.5-0.5c0.4-0.2,0.6-0.4,0.7-0.9C51.1,38.8,50.7,38.5,50.4,38.2z M36.4,38l-0.8,0.1
	c-0.2,0.2-0.3,0.6-0.3,0.8c0,0.7,0.6,1.3,0.6,1.3s-0.2-0.8-0.1-1.4C35.9,38.6,36.2,38.2,36.4,38z M43.9,36.8
	c-0.8,1.5-1.5,2.1-2.6,2.8c-0.8,0.4-2.6,1-3.3,0.4l-0.7,0.2c1.2,1.1,3,1.7,4.1,2.1c2.1-2.4,2.8-4.2,3-5.8L43.9,36.8z M40.6,37.4
	c1-0.6,2.2-1.1,3.6-1.6c0,0-0.2,0-0.5,0c-0.9,0-2.8,0.1-4.4,1c-1,0.5-1.9,1.4-2.3,2.6l0.8-0.1c0,0,0.6-0.5,1.7-1.2
	c0,0.1,0,0.1,0,0.2s0,0.1,0,0.2c0.1-0.1,0.2-0.2,0.4-0.2c0.2,0,0.4,0.2,0.4,0.4c0,0.2-0.2,0.4-0.4,0.4c0.1,0.1,0.3,0.1,0.5,0.1
	c0.5,0,0.8-0.4,0.8-0.9C41.2,37.9,41,37.5,40.6,37.4z M51.6,35.9c-0.2-0.2-0.4-0.2-0.6-0.2c-0.3,0-0.7,0.3-0.9,0.7
	c-0.2,0.4-0.3,0.8-0.4,1.2c-0.1,0.6-0.2,1-0.5,1.4c0.2-0.1,0.7-0.3,0.8-0.6c0.1-0.3,0.2-0.5,0.3-0.8c0.2-0.7,0.3-1,0.8-1
	c0.4,0,0.6,0.3,0.6,0.9C52,37,51.9,36.3,51.6,35.9z M56,36c-0.6-0.6-1.5-0.8-2.3-0.5c0.6,0.2,1.2,0.6,1.7,1.1c0.5,0.5,1,1.2,1.4,2
	C57,37.5,56.6,36.6,56,36z M53.2,36.5C53,35.4,52.5,35,51.8,35c-0.1,0-0.2,0-0.3,0c0.6,0.2,1,0.7,1.1,1.5c0.1,0.7,0.1,1.2-0.3,1.9
	c-0.4,0.7-0.6,1-0.8,1.7c-0.1,0.5-0.2,0.8-0.6,1.4c0.6-0.1,1.1-0.3,1.2-0.8c0.2-0.8,0.5-1.1,0.8-1.8C53.2,38.2,53.4,37.3,53.2,36.5z
	 M34.7,39.5c-0.4,0.1-0.9-0.1-1.2-0.3c-0.2-0.1-0.4-0.3-0.6-0.4c-0.2-0.1-0.4-0.1-0.6,0c-0.2,0-0.5,0-0.6,0
	c-0.3-0.1-0.4-0.2-0.5-0.5c-0.2-0.6-0.3-0.9-0.2-1.6c0-0.8,0.1-1.5,0.3-2.3c-0.3,0.2-0.7,0.7-1,1.8c-0.1,0.3-0.2,1.3-0.1,2.3
	c0,0.2,0.1,0.6,0.2,0.9c0,0,0.8,0.1,1.2,0.3c0.4,0.1,0.5,0.4,0.9,0.5c0.1,0,0.1-0.1,0.2-0.1c0.2,0,0.4,0.2,0.4,0.4
	c0,0.2-0.2,0.4-0.4,0.4h-0.1c0.1,0.1,0.2,0.2,0.3,0.2c0.4,0.1,0.8-0.1,0.8-0.5c0-0.1,0-0.2,0-0.3c0.3,0,0.6-0.3,0.9-0.5V39.5z
	 M53.3,33.6c-0.2-0.2-0.7-0.2-1.3,0.1c0.3,0.1,0.6,0.2,0.8,0.4c0.2,0.2,0.3,0.4,0.5,0.8C53.6,34.4,53.6,33.9,53.3,33.6z M51.1,30.9
	c-0.4-0.5-0.8-0.9-1.2-1.3L49,30.8c0.9,0.8,1.7,1.8,2.5,2.9L51.1,30.9z M50.9,28.5l-0.5,0.6c0.2,0.2,0.4,0.4,0.6,0.6L50.9,28.5z
	 M48.2,28.4l-0.9,1.1c0.2,0.1,0.4,0.3,0.6,0.4c0.2,0.1,0.4,0.3,0.5,0.4l0.9-1.1C49,28.9,48.6,28.6,48.2,28.4z M50,33.2
	c-1.2-2.3-3.7-3.4-6-4.3c-1.6-0.6-3.4-0.9-5.1-0.9c-1.2,0-3.6,0.3-4.2,0.7c-0.5,0.4-0.7,0.5-1.4,0.5c0.1,0.1,0.6,0.3,0.8,0.3
	c-0.2,0.3-0.7,0.5-1.2,0.6c0.3,0.3,0.7,0.4,1.1,0.2c-0.2,0.6-1,1-1.5,1.1c0.6,0.8,1.5,0.6,2.2,0.4c-0.9,1-2,1.8-3.8,2.1
	c0.2,0,1.1,0.1,1.4,0.1c1.4,0,2.1,0.2,2.9,1c2.1-2.1,3.9-4.7,7.8-4c2.3,0.4,3.3,2.2,3.4,4.2c0.1,1.4-0.5,2.9-1.3,4
	c1.2,0,2.6-0.1,3.6-1c0.2-1.1,0.9-2.5,1.9-3.1C50.5,34.3,50.2,33.7,50,33.2z M46.3,27.3l-0.9,1.2c0.3,0.1,0.6,0.3,0.9,0.5
	c0.1,0.1,0.2,0.1,0.4,0.2l0.9-1.1C47.2,27.7,46.8,27.5,46.3,27.3z M49.6,26.7l-0.9,1.1c0.4,0.3,0.8,0.5,1.1,0.9l0.9-1.1
	C50.4,27.2,50,26.9,49.6,26.7z M44.2,26.5l-1,1.2c0.3,0.1,0.6,0.2,0.9,0.3c0.2,0.1,0.4,0.1,0.6,0.2l0.9-1.2
	C45.2,26.8,44.7,26.6,44.2,26.5z M41.9,25.9l-1.1,1.3c0.1,0,0.3,0,0.4,0.1c0.2,0,0.3,0,0.5,0.1c0,0,0.1,0,0.1,0h0
	c0.2,0,0.3,0.1,0.5,0.1c0,0,0,0,0,0l1-1.3C43,26.1,42.4,26,41.9,25.9z M39.3,25.7l-1.2,1.5c0.6,0,1.2,0,1.8,0l1.1-1.4
	C40.5,25.8,39.9,25.7,39.3,25.7z M36.6,25.9c-0.1,0-0.1,0-0.2,0L35,27.6c0.1,0,0.3-0.1,0.5-0.1c0.2,0,0.3-0.1,0.5-0.1
	c0.1,0,0.3-0.1,0.5-0.1c0.2,0,0.5-0.1,0.7-0.1l1.2-1.5C37.8,25.7,37.1,25.8,36.6,25.9z M50.5,25.6l-0.5,0.5c0.2,0.1,0.4,0.3,0.6,0.4
	L50.5,25.6z M47.8,25.5l-0.9,1.1c0.4,0.2,0.9,0.5,1.3,0.7l0.9-1.1C48.6,26,48.2,25.8,47.8,25.5z M45.7,24.7l-1,1.2
	c0.5,0.1,0.9,0.3,1.4,0.5l0.9-1.2C46.6,25,46.2,24.8,45.7,24.7z M43.5,24l-1,1.3c0.5,0.1,1,0.2,1.6,0.3l1-1.2
	C44.5,24.2,44,24.1,43.5,24z M49.2,23.8l-0.9,1.1c0.4,0.2,0.8,0.5,1.3,0.8l0.9-1.1C50,24.3,49.6,24,49.2,23.8z M42.6,23.8
	c-0.5-0.1-1.1-0.2-1.6-0.2L39.9,25c0.5,0,1.1,0.1,1.7,0.1L42.6,23.8C42.7,23.8,42.6,23.8,42.6,23.8z M39.3,23.5h-0.8
	c0,0-0.1,0-0.1,0l-1.2,1.5c0.5,0,1.2-0.1,1.9-0.1l1.2-1.4C39.9,23.5,39.6,23.5,39.3,23.5z M47.2,22.9l-1,1.2
	c0.5,0.2,0.9,0.4,1.4,0.6l0.9-1.1C48.1,23.2,47.6,23,47.2,22.9z M50.2,22.5l-0.5,0.7c0.2,0.1,0.4,0.3,0.7,0.4L50.2,22.5z M45,22.1
	l-1,1.2c0.5,0.1,1,0.3,1.5,0.4l1-1.2C46,22.4,45.5,22.2,45,22.1z M42.7,21.6l-1.1,1.3c0.5,0.1,1.1,0.1,1.6,0.3l1-1.3
	C43.7,21.8,43.2,21.7,42.7,21.6z M40.1,21.4l-1.2,1.4c0.5,0,1.1,0,1.8,0.1l1.1-1.3C41.2,21.4,40.6,21.4,40.1,21.4z M33.7,28.4
	c-1.1-0.6-2.3-1.6-2.6-2.9c-0.3-1,0-2.6,1.2-4.3c-1.9,0.9-3.1,2.2-3.6,3.5c-0.6,1.4-0.4,3.3,0.3,4.8c-0.6-0.2-1-0.7-1.2-1.3
	c-0.2-0.6-0.2-1.3,0-2.2c-1.4,1.3-1.8,3.6-1.1,5.1c0.6,1.3,2,2.3,3.5,2.5c-0.7-0.5-1.2-1.2-1.4-1.9c1,0.5,2.1,0.7,3.2,0.2
	c-0.5,0-1-0.2-1.5-0.7c0.4,0.1,0.8,0,1.1-0.2c-0.3-0.1-0.7-0.1-1-0.6c0.4,0,0.8,0,1.1-0.4c-0.5-0.3-0.9-1.1-1.1-2.1
	C31.6,28.8,32.2,28.8,33.7,28.4z M48.6,21.1l-1,1.2c0.5,0.2,0.9,0.4,1.3,0.6l0.9-1.1C49.5,21.5,49.1,21.3,48.6,21.1z M46.5,20.3
	l-1,1.2c0.5,0.1,1,0.3,1.5,0.5l1-1.2C47.5,20.6,47,20.4,46.5,20.3z M44.3,19.7L43.2,21c0.5,0.1,1,0.2,1.5,0.3l1-1.3
	C45.2,19.9,44.7,19.8,44.3,19.7z M49.8,19.6l-0.8,0.9c0.3,0.1,0.6,0.3,0.9,0.5L49.8,19.6z M41.8,19.3l-1.1,1.4
	c0.5,0,1.1,0.1,1.7,0.2l1.1-1.3C42.9,19.4,42.3,19.3,41.8,19.3z M47.9,18.5l-1,1.2c0.5,0.1,1,0.3,1.4,0.5l0.9-1.2
	C48.9,18.8,48.4,18.6,47.9,18.5z M45.8,17.8l-1,1.3c0.5,0.1,1,0.2,1.5,0.4l1-1.2C46.7,18.1,46.3,17.9,45.8,17.8z M43.4,17.3
	l-1.1,1.3c0.5,0.1,1.1,0.2,1.7,0.3l1-1.3C44.4,17.5,43.9,17.4,43.4,17.3z M49.5,16.8c0,0-0.1,0-0.1,0l-1,1.2
	c0.4,0.2,0.8,0.3,1.3,0.5L49.5,16.8z M48.2,16.3c-0.4,0.3-1,0.7-1.5,0.4l-0.5,0.5c0.5,0.1,1,0.3,1.5,0.4l1-1.2L48.2,16.3z
	 M45.8,14.6l-0.3-0.1l-1.7,2.2c0.5,0.1,1,0.2,1.6,0.3l0.8-1C46,15.7,45.9,15.1,45.8,14.6z M48.2,12c-0.1,0-0.3-0.1-0.4-0.1
	c-0.6,0-1.2,0.4-1.4,1.4C46,14.4,47,16.1,47,16.1s1.7-0.8,2-1.9C49.4,13.1,49,12.3,48.2,12z"/>
</svg>
