<?xml version="1.0" encoding="utf-8"?>
<!-- Generator: Adobe Illustrator 24.0.2, SVG Export Plug-In . SVG Version: 6.00 Build 0)  -->
<svg version="1.1" id="Layer_1" xmlns="http://www.w3.org/2000/svg" xmlns:xlink="http://www.w3.org/1999/xlink" x="0px" y="0px"
	 viewBox="0 0 85.5 82.5" style="enable-background:new 0 0 85.5 82.5;" xml:space="preserve">
<style type="text/css">
	.st0{fill:none;stroke:#000000;stroke-miterlimit:10;}
	.st1{fill:#EA1337;}
</style>
<ellipse class="st0" cx="-94" cy="-36.2" rx="29.9" ry="32.2"/>
<path id="path3007_2_" d="M-88.9-13.1c-0.8-1.1-1.6-2.2-2.7-2.2c-1.1,0-1.9,0.9-2.4,1.8c-0.7,1.2-1.3,4.5-1.3,4.9
	c0.2-0.4,2-3.9,3.8-4.1c1.9-0.1,4.1,1.7,4.3,1.9C-87.3-10.8-88.4-12.4-88.9-13.1z M-98.2-10.7c-1.1-2.2-2.2-4.8-4.1-4.7
	c-2,0-3.2,3-3.3,3.4c0.2-0.3,1.1-1.4,3.1-1.1c1.1,0.2,2.7,1.6,3.6,3.1c1.6,2.5,2.4,1.6,2.4,1.6S-97.2-8.9-98.2-10.7z M-80.5-15.1
	c-0.5-0.8-1.3-2.2-2.4-2.2c-2,0.1-3.6,2-3,6.4c0,0,2-6.6,5.2-3.8c0.6,0.5,0.9,0.5,1.4,0.6C-79.9-14.3-80.3-14.7-80.5-15.1z
	 M-110.9-22.3c-0.4-0.5-0.8-0.8-1.3-0.8c-0.1,0-0.2,0-0.3,0c-0.7,0.2-1,1.7-1.1,2.5c-0.4,6.1,3.8,7.5,6.9,7.5
	C-107.2-17.6-109.1-20.3-110.9-22.3z M-99-24.4c0-0.3,0.4-0.4,0.4-0.4s-0.5-0.2-1.3-0.2c-0.6,0-1,0.4-1,0.4c0.3,0.4,0.8,0.8,1.4,0.8
	c0.3,0,0.8-0.1,1-0.4C-98.6-24.2-99-24.2-99-24.4z M-76-25.5h-0.1c-0.3,0-0.6,0.1-0.9,0.3c-2.4,1.6-1.5,9.5-1.5,10.2
	c0-0.6,0.1-6,2.2-7.3c1.3-0.8,2.8,0,2.8,0S-74.3-25.5-76-25.5z M-114.2-26.5c-0.2-1,0.1-2.1,0.2-3.4c0,0-1.7,2.1-1.5,5.3
	c0.1,1.2,0.6,2.1,1,2.5c0-1.4,1-2.3,1-2.3S-114-24.8-114.2-26.5z M-73.5-26.6c-0.2-0.9-0.3-1.7-0.3-2.4c-0.1-1-0.1-1.8-0.5-2.3
	c-0.3-0.5-0.8-0.9-1.7-1c0,0.1,0,4.7,3.2,7.4C-73.2-25.5-73.4-26.1-73.5-26.6z M-99.3-32.8c-0.5,0-0.9,0.2-1.5,1.2
	c-0.3,0.5-0.5,0.8-0.8,1.2c-0.3,0.4-0.6,0.6-1,0.7c-1,0.2-1.6,0.1-2.3-0.3c0.5,0.5,1.7,1,2.5,0.9c0.5-0.1,0.9-0.4,1.2-0.7
	c0.3-0.4,0.6-0.8,0.9-1.3c0.3-0.5,0.8-1.1,1.1-1.1c0.2,0,0.3,0.1,0.3,0.2c0,0.2-0.1,0.4-0.1,0.5c0.1,0,0.4-0.3,0.4-0.5
	C-98.6-32.6-99-32.8-99.3-32.8z M-98.7-34.6h-0.2c-0.8,0-1.5,0.8-1.4,1.5c0.3-0.4,0.7-0.8,1.5-0.7c0.8,0,1.1,0.7,1.3,1.6
	C-97.2-33.4-97.3-34.5-98.7-34.6z M-92-35c-0.8,1-1.7,1.7-3.3,2.5c-2.2,1.1-4.5,2.1-4.5,2.1c-0.1,0.3-0.5,0.8-0.7,1.1
	c0,0,3.1-1.2,4.8-2c0.7-0.3,1.3-0.7,1.8-1c0.1,0.1,0.3,0.4,0.3,0.7c0.3-1,0.6-1.5,1-1.5c0.1,0,0.1,0,0.2,0.1c0.5-0.5,1-1.2,1.4-2
	C-91.1-35-92-35-92-35z M-99.1-36c-0.4-0.3-0.8-0.8-1.1-1.3c0.1,0.6,0.1,1.3,0.7,1.8c0.5,0.5,1.4,0.6,2,0.5
	C-98.1-35.2-98.6-35.6-99.1-36z M-102.1-37c-0.3,0.4-0.7,0.8-0.9,0.9c-0.2,0.1-0.5,0.3-0.9,0.3l-0.5-0.5c-0.2-0.2-0.4-0.3-0.8-0.5
	c-0.4-0.2-1-0.6-1-0.6c0.2,0.5,1.1,2.1,2.1,3.1c0.1-0.2,0.2-0.3,0.3-0.5l0,1.4c0,0.5-0.2,1.2-0.3,1.4c-0.2,0.5-0.5,0.8-0.5,0.8
	c0.4,0,0.9-0.4,1.1-0.7c0.2-0.3,0.3-0.9,0.3-1.3c0-0.8,0.2-1.7,0.2-1.7c0.4-0.6,0.6-0.9,1.1-1.4L-102.1-37z M-89.6-36.9
	c-0.1-0.7-0.7-0.8-1.3-0.8c-0.5,0-1.2,0.5-1.2,1.1c0,0.4,0.3,0.6,0.4,0.7c0.6,0.2,1.3,0.1,1.3,0.1c0.1,1.2-0.4,2.7-2.1,4.7
	c0,0.2-0.1,0.4-0.1,0.5c-0.6,0.9-1.2,1.8-1.2,1.8s-0.4,0.6-0.8,1c-0.2-0.2-0.4-0.4-0.5-0.9c-0.3,0.6-0.3,1.6-1.2,1.8
	c-0.3,0.1-0.7-0.4-0.8-0.9c-0.1,0.3-0.3,0.6-0.6,0.8c-0.5-0.2-0.9-0.4-1.5-0.4c-0.9,0-1.8,0-2.7,0.8c0-0.3-0.2-0.5,0-0.9
	c0.1-0.2,0.2-0.5,0.2-0.8c0-0.4-0.5-0.7-0.9-0.4c0.2,0.1,0.4,0.2,0.4,0.5c0,0.3-0.1,0.4-0.2,0.7c-0.1,0.4,0.2,0.7,0,1.1
	c-0.1,0.2-0.2,0.3-0.1,0.5c0.1,0.2,0.3,0.2,0.6,0.1l0.9-0.3c0.4-0.1,0.8-0.2,1.2-0.1c0.6,0,1.2,0.1,1.7,0.5c0.4,0.4,0.8,0.4,1.2,0.4
	c1.3,0,1.9-0.9,2.6-1.7c1.3-1.3,2.2-2.9,3-4.4c0,0,0.6-1.1,0.9-1.7c0.3-0.6,0.5-1.1,0.7-1.9C-89.5-35.4-89.5-36-89.6-36.9z
	 M-91.1-24.8c0.7-0.6,1.6-0.8,2-0.2c2,2.7,6.1,6,9.1,6.8c-2-1.7-6.8-5-8-8.2c-0.2-0.5-0.3-1.1,0.2-1.7c0.2-0.3,1-1.1,1.6-0.7
	c3.3,2.8,6.7,1.9,9.7,1.1c-2.9,0.1-5.4,0.9-8.7-1.9c-0.3-0.4-0.3-0.7-0.3-0.9c0-0.3,0.1-0.5,0.3-0.7c3.6,1.1,6.3,0.1,8.3-1.1
	c-2.7,0.4-4.9,0.7-8.2-0.5c0.3-0.7,0.3-0.8,0.2-1.5c1.6-0.5,2.5-1,3.2-1.6c1.3-1.2,1.4-2.2,1.4-2.2s-1.3,1-2.2,1.5
	c-1.4,0.8-2.4,1.3-3.7,1.3c0,0-0.3,2.3-0.7,3.5c-0.2,0.7-1.2,1.4-2,1.8c-0.6,0.3-1.5,1-2,1.6c-0.9,1.1-1.2,1.5-2.2,2.6
	c-0.7,0.8-1.3,1.7-2.2,2.3c-0.6,0.5-1.3,0.8-2,1c-1.1,0.2-2.2,0.2-3.2-0.1c-0.5-0.1-1-0.4-1.5-0.6c-0.7-0.4-0.9-1-1-1.8
	c0-0.6,0.2-1.5,0.3-2.1c0.1-0.6,0.1-0.9-0.1-1.3c-0.2-0.3-0.8-0.4-1.3-0.6s-1.7-1-1.7-1c0.3-0.1,0.6-0.5,0.6-0.9
	c-1-0.8-1.5-1.8-1.6-2.9c-0.1-1.1-0.1-2.8-0.1-2.8s-2.5,0.1-3.9,1.5c-1,1-2.5,3.4-2.5,3.4c1-0.1,2.3-0.1,3.3,0
	c0.9,0.2,1.6,0.5,1.7,0.9c0,0.7-0.8,1-1.9,1.2c-1,0.1-2.1,0.1-2.8,0c-0.6-0.1,1.6,1,2.8,1.3c0.4,0.1,1.1,0.2,2,0.2
	c0.7,0.1,1.2,0.2,1.3,0.6c0.3,1.2-2.6,2.7-4.9,3.7c0,0,0.8,0,1.8,0c0.9,0,1.5-0.2,2.2-0.4c0.8-0.3,1.7-0.3,2.6,0
	c0.8,0.2,1.4,0.6,1.8,1c0.4,0.5,1.4,0.9,1.1,2.1c-0.2,0.9-0.8,1.4-1.3,2.1c-1.4,2.2-1.8,3.5-2,5.6c0,0,1.8-3.3,4.5-6.2
	c1.2-1.3,1.8-1.5,2.3-1.4c0.5,0.1,0.8,0.7,1.1,1.5c0.2,1,0.3,2.3,0.4,3.4c0.1,2.4,1.3,6,1.3,6c-0.3-3.9-0.3-9,1.4-10.7
	c0.6-0.6,1.2-0.7,1.7-0.2c1.4,1.4,4.3,4.9,5.5,6.7c-0.4-2.5-2.3-4-4.4-7.7C-92.5-23.1-91.9-24.1-91.1-24.8z M-76.4-36.9
	c-0.6-1.3-1.7-2.2-2.8-2.1c0.7,0.6,1.3,1.6,1.8,2.8c0.4,1,0.8,2.2,0.8,3.3C-75.8-34-75.9-35.6-76.4-36.9z M-86.4-39.2
	c-0.2,1.7-0.4,1.9-0.6,2.6c0.2-0.2,0.3-0.3,0.5-0.5c0.4-0.2,0.6-0.4,0.7-0.9C-85.7-38.7-86.1-38.9-86.4-39.2z M-100.4-39.4l-0.8,0.1
	c-0.2,0.2-0.3,0.6-0.3,0.8c0,0.7,0.6,1.3,0.6,1.3s-0.2-0.8-0.1-1.4C-100.9-38.8-100.6-39.2-100.4-39.4z M-92.9-40.7
	c-0.8,1.5-1.5,2.1-2.6,2.8c-0.8,0.4-2.6,1-3.3,0.4l-0.7,0.2c1.2,1.1,3,1.7,4.1,2.1c2.1-2.4,2.8-4.2,3-5.8L-92.9-40.7z M-96.2-40
	c1-0.6,2.2-1.1,3.6-1.6c0,0-0.2,0-0.4,0c-0.9,0-2.8,0.1-4.4,1c-1,0.5-1.9,1.4-2.3,2.6l0.8-0.1c0,0,0.6-0.5,1.7-1.2
	c0,0.1,0,0.1,0,0.2s0,0.1,0,0.2c0.1-0.1,0.2-0.2,0.4-0.2c0.2,0,0.4,0.2,0.4,0.4c0,0.2-0.2,0.4-0.4,0.4c0.1,0.1,0.3,0.1,0.5,0.1
	c0.5,0,0.8-0.4,0.8-0.9C-95.6-39.6-95.8-39.9-96.2-40z M-85.2-41.5c-0.2-0.2-0.4-0.2-0.6-0.2c-0.3,0-0.7,0.3-0.9,0.7
	c-0.2,0.4-0.3,0.8-0.4,1.2c-0.1,0.6-0.2,1-0.5,1.4c0.2-0.1,0.7-0.3,0.8-0.6c0.1-0.3,0.2-0.5,0.3-0.8c0.2-0.7,0.3-1,0.8-1
	c0.4,0,0.6,0.3,0.6,0.9C-84.7-40.5-84.9-41.2-85.2-41.5z M-80.8-41.5c-0.6-0.6-1.5-0.8-2.3-0.5c0.6,0.2,1.2,0.6,1.7,1.1
	c0.5,0.5,1,1.2,1.4,2C-79.8-40-80.2-40.9-80.8-41.5z M-83.6-41c-0.2-1.1-0.7-1.5-1.5-1.5c-0.1,0-0.2,0-0.3,0c0.6,0.2,1,0.7,1.1,1.5
	c0.1,0.7,0.1,1.2-0.3,1.9c-0.4,0.7-0.6,1-0.8,1.7c-0.1,0.5-0.2,0.8-0.6,1.4c0.6-0.1,1.1-0.3,1.2-0.8c0.2-0.8,0.4-1.1,0.8-1.8
	C-83.6-39.3-83.4-40.1-83.6-41z M-102.1-38c-0.4,0.1-0.9-0.1-1.2-0.3c-0.2-0.1-0.4-0.3-0.6-0.4c-0.2-0.1-0.4-0.1-0.6,0
	c-0.2,0-0.5,0-0.6,0c-0.3-0.1-0.4-0.2-0.5-0.5c-0.2-0.6-0.3-0.9-0.2-1.6c0-0.8,0.1-1.5,0.3-2.3c-0.3,0.2-0.7,0.7-1,1.8
	c-0.1,0.3-0.2,1.3-0.1,2.3c0,0.2,0.1,0.6,0.2,0.9c0,0,0.8,0.1,1.2,0.3c0.4,0.1,0.5,0.4,0.9,0.5c0.1,0,0.1-0.1,0.2-0.1
	c0.2,0,0.4,0.2,0.4,0.4c0,0.2-0.2,0.4-0.4,0.4h-0.1c0.1,0.1,0.2,0.2,0.3,0.2c0.4,0.1,0.8-0.1,0.8-0.5c0-0.1,0-0.2,0-0.3
	c0.3,0,0.6-0.3,0.9-0.5V-38z M-83.5-43.8c-0.2-0.2-0.7-0.2-1.3,0.1c0.3,0.1,0.6,0.2,0.8,0.4c0.2,0.2,0.3,0.4,0.5,0.8
	C-83.2-43.1-83.2-43.6-83.5-43.8z M-85.6-46.5c-0.4-0.5-0.8-0.9-1.2-1.3l-0.9,1.1c0.9,0.8,1.7,1.8,2.4,2.9L-85.6-46.5z M-85.9-48.9
	l-0.5,0.6c0.2,0.2,0.4,0.4,0.6,0.7L-85.9-48.9z M-88.6-49.1l-0.9,1.1c0.2,0.1,0.4,0.3,0.6,0.4c0.2,0.1,0.4,0.3,0.5,0.4l0.9-1.1
	C-87.8-48.5-88.2-48.8-88.6-49.1z M-86.8-44.2c-1.2-2.3-3.7-3.5-6-4.3c-1.6-0.6-3.4-0.9-5.1-0.9c-1.2,0-3.6,0.3-4.2,0.7
	c-0.5,0.4-0.7,0.5-1.4,0.5c0.1,0.1,0.6,0.3,0.8,0.3c-0.2,0.3-0.7,0.5-1.2,0.6c0.3,0.3,0.7,0.4,1.1,0.2c-0.2,0.6-1,1-1.5,1.1
	c0.6,0.8,1.5,0.6,2.2,0.4c-0.9,1-2,1.8-3.8,2.1c0.2,0,1.1,0.1,1.4,0.1c1.4,0,2.1,0.2,2.9,1c2.1-2.1,3.9-4.7,7.8-4
	c2.3,0.4,3.3,2.2,3.4,4.2c0.1,1.4-0.5,2.9-1.3,4c1.2,0,2.6-0.1,3.6-1c0.2-1.1,0.9-2.5,1.9-3.1C-86.3-43.2-86.6-43.7-86.8-44.2z
	 M-90.5-50.2l-0.9,1.2c0.3,0.1,0.6,0.3,0.9,0.5c0.1,0.1,0.2,0.1,0.4,0.2l0.9-1.1C-89.6-49.7-90-50-90.5-50.2z M-87.2-50.8l-0.9,1.1
	c0.4,0.3,0.8,0.5,1.1,0.9l0.9-1.1C-86.4-50.2-86.8-50.5-87.2-50.8z M-92.6-51l-1,1.2c0.3,0.1,0.6,0.2,0.9,0.3
	c0.2,0.1,0.4,0.1,0.6,0.2l0.9-1.2C-91.6-50.7-92.1-50.8-92.6-51z M-94.9-51.5l-1.1,1.3c0.1,0,0.3,0,0.4,0.1c0.2,0,0.3,0,0.5,0.1
	c0,0,0.1,0,0.1,0h0.1c0.2,0,0.3,0.1,0.5,0.1c0,0,0,0,0,0l1-1.3C-93.8-51.3-94.4-51.4-94.9-51.5z M-97.5-51.7l-1.2,1.5
	c0.6,0,1.2,0,1.8,0l1.1-1.4C-96.3-51.7-96.9-51.7-97.5-51.7z M-100.2-51.6c-0.1,0-0.1,0-0.2,0l-1.4,1.7c0.1,0,0.3-0.1,0.4-0.1
	c0.2,0,0.3-0.1,0.5-0.1c0.1,0,0.3-0.1,0.5-0.1c0.2,0,0.5-0.1,0.7-0.1l1.2-1.5C-99-51.7-99.6-51.7-100.2-51.6z M-86.3-51.9l-0.5,0.5
	c0.2,0.1,0.4,0.3,0.6,0.4L-86.3-51.9z M-89-51.9l-0.9,1.1c0.4,0.2,0.9,0.5,1.3,0.7l0.9-1.1C-88.2-51.4-88.6-51.7-89-51.9z
	 M-91.1-52.8l-1,1.2c0.5,0.1,0.9,0.3,1.4,0.5l0.9-1.2C-90.2-52.5-90.6-52.6-91.1-52.8z M-93.3-53.5l-1,1.3c0.5,0.1,1,0.2,1.6,0.3
	l1-1.2C-92.3-53.2-92.8-53.3-93.3-53.5z M-87.6-53.7l-0.9,1.1c0.4,0.2,0.8,0.5,1.3,0.8l0.9-1.1C-86.8-53.2-87.2-53.4-87.6-53.7z
	 M-94.2-53.6c-0.5-0.1-1.1-0.2-1.6-0.2l-1.1,1.4c0.5,0,1.1,0.1,1.7,0.1L-94.2-53.6C-94.1-53.6-94.2-53.6-94.2-53.6z M-97.5-53.9
	h-0.8c-0.1,0-0.1,0-0.1,0l-1.2,1.5c0.5,0,1.2-0.1,1.9-0.1l1.2-1.4C-96.9-53.9-97.2-53.9-97.5-53.9z M-89.6-54.6l-1,1.2
	c0.5,0.2,0.9,0.4,1.4,0.6l0.9-1.1C-88.7-54.2-89.2-54.4-89.6-54.6z M-86.6-54.9l-0.5,0.7c0.2,0.1,0.4,0.3,0.7,0.4L-86.6-54.9z
	 M-91.8-55.4l-1,1.2c0.5,0.1,1,0.3,1.5,0.4l1-1.2C-90.8-55.1-91.3-55.2-91.8-55.4z M-94.1-55.9l-1.1,1.3c0.5,0.1,1.1,0.1,1.6,0.3
	l1-1.3C-93.1-55.7-93.6-55.8-94.1-55.9z M-96.7-56.1l-1.2,1.4c0.5,0,1.1,0,1.8,0.1l1.1-1.3C-95.6-56-96.2-56.1-96.7-56.1z
	 M-103.1-49c-1.1-0.6-2.3-1.6-2.6-2.9c-0.3-1,0-2.6,1.2-4.3c-1.9,0.9-3.1,2.2-3.6,3.5c-0.6,1.4-0.4,3.3,0.3,4.8
	c-0.6-0.2-1-0.7-1.2-1.3c-0.2-0.6-0.2-1.3,0-2.2c-1.4,1.3-1.8,3.6-1.1,5.1c0.6,1.3,2,2.3,3.5,2.5c-0.7-0.5-1.2-1.2-1.4-1.9
	c1,0.5,2.1,0.8,3.2,0.2c-0.5,0-1-0.2-1.5-0.7c0.4,0.1,0.8,0,1.1-0.2c-0.3-0.1-0.7-0.1-1-0.6c0.4,0,0.8,0,1.1-0.4
	c-0.5-0.3-0.9-1.1-1.1-2.1C-105.2-48.7-104.6-48.6-103.1-49z M-88.2-56.4l-1,1.2c0.5,0.2,0.9,0.4,1.3,0.6l0.9-1.1
	C-87.3-56-87.7-56.2-88.2-56.4z M-90.3-57.2l-1,1.2c0.5,0.1,1,0.3,1.5,0.5l1-1.2C-89.3-56.9-89.8-57-90.3-57.2z M-92.5-57.8
	l-1.1,1.3c0.5,0.1,1,0.2,1.5,0.3l1-1.3C-91.5-57.6-92-57.7-92.5-57.8z M-87-57.9l-0.8,0.9c0.3,0.1,0.6,0.3,0.9,0.5L-87-57.9z
	 M-95-58.2l-1.1,1.4c0.5,0,1.1,0.1,1.7,0.2l1.1-1.3C-93.9-58.1-94.5-58.1-95-58.2z M-88.8-59l-1,1.2c0.5,0.1,1,0.3,1.4,0.5l0.9-1.2
	C-87.9-58.6-88.4-58.8-88.8-59z M-91-59.7l-1,1.3c0.5,0.1,1,0.2,1.5,0.4l1-1.2C-90.1-59.4-90.5-59.5-91-59.7z M-93.4-60.1l-1.1,1.3
	c0.5,0.1,1.1,0.2,1.7,0.3l1-1.3C-92.3-60-92.9-60.1-93.4-60.1z M-87.3-60.7c0,0-0.1,0-0.1,0l-1,1.2c0.4,0.2,0.8,0.3,1.3,0.5
	L-87.3-60.7z M-88.6-61.2c-0.4,0.3-1,0.7-1.5,0.4l-0.5,0.5c0.5,0.1,1,0.3,1.5,0.4l1-1.2L-88.6-61.2z M-91-62.9l-0.3-0.1l-1.7,2.2
	c0.5,0.1,1,0.2,1.6,0.3l0.8-0.9C-90.8-61.8-90.9-62.3-91-62.9z M-88.6-65.5c-0.1,0-0.3-0.1-0.4-0.1c-0.6,0-1.2,0.4-1.4,1.4
	c-0.3,1.1,0.7,2.8,0.7,2.8s1.7-0.8,2-1.9C-87.4-64.4-87.8-65.2-88.6-65.5z"/>
<polygon class="st1" points="3.2,50.4 3.2,68.6 40.9,30.6 78.6,68.2 78.6,50.4 41.4,13.9 "/>
</svg>
